# Blender v3.3.1 OBJ File: 'project 2.blend'
# www.blender.org
o Cube_Cube.002
v 0.111812 4.085414 0.070732
v 0.186754 4.819554 -3.303111
v 0.125501 3.632771 -0.100790
v 0.173065 5.272196 -3.131589
v -0.080829 4.812981 -3.306977
v -0.094518 5.265623 -3.135456
v -0.142083 3.626199 -0.104656
v -0.155772 4.078841 0.066866
vn 0.9994 0.0202 0.0266
vn 0.0048 0.3545 -0.9351
vn -0.9994 -0.0202 -0.0266
vn -0.0048 -0.3545 0.9351
vn 0.0280 -0.9375 -0.3469
vn -0.0280 0.9375 0.3469
s 1
f 1//1 3//1 2//1
f 4//2 2//2 5//2
f 6//3 5//3 7//3
f 8//4 7//4 3//4
f 5//5 2//5 3//5
f 4//6 6//6 8//6
f 1//1 2//1 4//1
f 4//2 5//2 6//2
f 6//3 7//3 8//3
f 8//4 3//4 1//4
f 5//5 3//5 7//5
f 4//6 8//6 1//6
