# Blender v3.3.1 OBJ File: 'project 2.blend'
# www.blender.org
o Icosphere
v -0.004684 0.867342 0.010246
v 0.557999 1.876414 0.874358
v -0.578009 1.876414 0.860580
v 0.916402 1.876415 -0.306028
v -0.921710 1.876415 -0.328339
v 0.001904 1.876415 -1.049340
v 0.912342 3.509138 0.348831
v -0.011272 3.509137 1.069832
v -0.925770 3.509138 0.326520
v -0.567366 3.509138 -0.853865
v 0.568642 3.509138 -0.840088
v -0.004684 4.518210 0.010247
vn -0.0092 -0.6474 0.7621
vn 0.7536 -0.6162 0.2288
vn -0.7575 -0.6150 0.2190
vn -0.4750 -0.6358 -0.6084
vn 0.4880 -0.6336 -0.6004
vn 0.9507 -0.1134 0.2887
vn -0.0120 -0.1230 0.9923
vn -0.9545 -0.1130 0.2759
vn -0.6109 -0.1193 -0.7826
vn 0.6263 -0.1186 -0.7705
vn 0.6109 0.1193 0.7826
vn -0.6263 0.1186 0.7705
vn -0.9507 0.1134 -0.2887
vn 0.0120 0.1230 -0.9923
vn 0.9545 0.1130 -0.2759
vn 0.4750 0.6358 0.6084
vn -0.4880 0.6336 0.6004
vn -0.7536 0.6162 -0.2288
vn 0.0092 0.6474 -0.7621
vn 0.7575 0.6150 -0.2190
s 1
f 1//1 2//1 3//1
f 2//2 1//2 4//2
f 1//3 3//3 5//3
f 1//4 5//4 6//4
f 1//5 6//5 4//5
f 2//6 4//6 7//6
f 3//7 2//7 8//7
f 5//8 3//8 9//8
f 6//9 5//9 10//9
f 4//10 6//10 11//10
f 2//11 7//11 8//11
f 3//12 8//12 9//12
f 5//13 9//13 10//13
f 6//14 10//14 11//14
f 4//15 11//15 7//15
f 8//16 7//16 12//16
f 9//17 8//17 12//17
f 10//18 9//18 12//18
f 11//19 10//19 12//19
f 7//20 11//20 12//20
