# Blender v3.3.1 OBJ File: 'project 2.blend'
# www.blender.org
o Icosphere.001
v 0.425671 4.762787 -3.427703
v 0.424928 4.762599 -3.428140
v 0.425671 4.763045 -3.428306
v -0.225355 4.813030 -3.546138
v -0.226278 4.813349 -3.546001
v -0.225640 4.813560 -3.546492
v 0.176542 4.680996 -3.237217
v 0.177286 4.681185 -3.236779
v 0.176257 4.681106 -3.236592
v 0.176542 4.844202 -3.619063
v 0.176257 4.844728 -3.619416
v 0.177286 4.844647 -3.619229
v 0.244904 4.831422 -3.032793
v 0.245938 4.831502 -3.032980
v 0.245475 4.831938 -3.032572
v 0.536753 5.006006 -3.097948
v 0.536930 5.006654 -3.098031
v 0.536290 5.006444 -3.097539
v 0.647835 4.963536 -3.341899
v 0.647835 4.963796 -3.342505
v 0.648011 4.964181 -3.341982
v -0.114558 4.955495 -2.979763
v -0.113986 4.956011 -2.979542
v -0.115020 4.956091 -2.979730
v -0.517093 5.087740 -3.289172
v -0.516917 5.088127 -3.288649
v -0.516917 5.088386 -3.289254
v -0.114558 5.219984 -3.598582
v -0.115020 5.220419 -3.598174
v -0.113986 5.220500 -3.598361
v -0.406013 4.882065 -3.151282
v -0.405372 4.881855 -3.150789
v -0.405837 4.882452 -3.150756
v -0.405372 5.045477 -3.533615
v -0.406013 5.045268 -3.533123
v -0.405837 5.045916 -3.533206
v 0.245938 5.095829 -3.651424
v 0.244904 5.095911 -3.651612
v 0.245475 5.096426 -3.651391
v 0.536753 5.169468 -3.480398
v 0.536290 5.170066 -3.480365
v 0.536930 5.169857 -3.479872
v 0.356557 5.238362 -3.084662
v 0.357195 5.238573 -3.085153
v 0.356271 5.238892 -3.085016
v -0.046368 5.207273 -3.011925
v -0.045341 5.207194 -3.011738
v -0.045624 5.207720 -3.012091
v -0.294755 5.289135 -3.203452
v -0.294755 5.288877 -3.202848
v -0.294010 5.289321 -3.203014
v -0.045341 5.370817 -3.394562
v -0.046368 5.370737 -3.394375
v -0.045624 5.370924 -3.393937
v 0.357195 5.339437 -3.321147
v 0.356557 5.339647 -3.321638
v 0.356271 5.339756 -3.321011
v -0.225355 4.712164 -3.310143
v -0.225640 4.712275 -3.309516
v -0.226278 4.712483 -3.310007
vn 0.4211 -0.8341 -0.3564
vn -0.3232 -0.6400 -0.6971
vn -0.3231 -0.6402 -0.6969
vn -0.3232 -0.6401 -0.6970
vn 0.1149 -0.9688 0.2195
vn 0.1146 -0.9689 0.2195
vn 0.1154 -0.9688 0.2195
vn 0.1154 -0.5081 -0.8535
vn 0.1152 -0.5081 -0.8535
vn 0.1901 -0.5552 0.8097
vn 0.1897 -0.5551 0.8099
vn 0.1899 -0.5551 0.8098
vn 0.6224 -0.0703 0.7795
vn 0.9539 -0.2761 -0.1181
vn -0.1906 -0.2011 0.9608
vn -0.9539 0.2757 0.1185
vn -0.1900 0.5567 -0.8087
vn -0.1900 0.5566 -0.8087
vn -0.6224 -0.5157 0.5887
vn -0.6225 -0.5157 0.5886
vn -0.6225 -0.5157 0.5887
vn -0.6230 0.0698 -0.7791
vn -0.6229 0.0699 -0.7792
vn -0.6230 0.0699 -0.7791
vn 0.1903 0.2007 -0.9610
vn 0.6223 0.5153 -0.5893
vn 0.6223 0.5153 -0.5892
vn 0.3225 0.6392 0.6981
vn 0.3223 0.6396 0.6979
vn 0.3228 0.6391 0.6982
vn -0.1166 0.5098 0.8524
vn -0.1165 0.5098 0.8524
vn -0.1166 0.5099 0.8523
vn -0.4219 0.8340 0.3556
vn -0.4219 0.8341 0.3555
vn -0.1145 0.9688 -0.2200
vn -0.1146 0.9687 -0.2200
vn 0.3244 0.9458 -0.0159
vn 0.0000 -0.9195 -0.3930
vn 0.5371 -0.7551 0.3760
vn -0.1721 -0.7642 0.6216
vn -0.7720 -0.5844 -0.2498
vn -0.1721 -0.0788 -0.9819
vn 0.5371 -0.2501 -0.8056
vn 0.1721 0.0788 0.9819
vn -0.5371 0.2501 0.8056
vn -0.5371 0.7551 -0.3760
vn 0.1721 0.7642 -0.6216
vn 0.7720 0.5844 0.2498
vn -0.0000 0.9195 0.3930
vn -0.0994 -0.9869 0.1269
vn -0.0989 -0.9870 0.1269
vn -0.0998 -0.9868 0.1276
vn 0.2746 -0.9601 -0.0530
vn 0.2736 -0.9604 -0.0529
vn 0.2741 -0.9603 -0.0524
vn 0.1630 -0.8194 0.5496
vn 0.1632 -0.8195 0.5493
vn 0.7018 -0.6555 -0.2790
vn 0.7006 -0.6564 -0.2798
vn 0.7014 -0.6557 -0.2794
vn 0.2747 -0.7020 -0.6571
vn 0.2742 -0.7019 -0.6574
vn 0.2748 -0.7022 -0.6569
vn -0.3512 -0.8610 -0.3680
vn -0.3514 -0.8609 -0.3679
vn -0.4995 -0.8117 0.3027
vn -0.4990 -0.8124 0.3015
vn -0.4991 -0.8120 0.3027
vn -0.1000 -0.5916 -0.8000
vn -0.0993 -0.5903 -0.8010
vn -0.0993 -0.5902 -0.8011
vn -0.4985 -0.3427 -0.7962
vn -0.4990 -0.3426 -0.7960
vn -0.4984 -0.3425 -0.7964
vn 0.1625 -0.1693 -0.9721
vn 0.1634 -0.1692 -0.9719
vn 0.1623 -0.1692 -0.9721
vn 0.8818 -0.1856 0.4336
vn 0.8819 -0.1849 0.4337
vn 0.8823 0.1854 -0.4325
vn 0.8814 0.1854 -0.4344
vn 0.8824 0.1854 -0.4325
vn 0.0001 -0.3936 0.9193
vn -0.0003 -0.3933 0.9194
vn -0.0007 -0.3931 0.9195
vn 0.4031 -0.3588 0.8419
vn 0.4047 -0.3603 0.8405
vn 0.4044 -0.3605 0.8405
vn -0.8815 -0.1852 0.4342
vn -0.8821 -0.1858 0.4329
vn -0.8821 -0.1858 0.4328
vn -0.4044 -0.3598 0.8409
vn -0.4031 -0.3595 0.8416
vn -0.4036 -0.3595 0.8413
vn -0.4041 0.3597 -0.8410
vn -0.4043 0.3594 -0.8410
vn -0.4043 0.3596 -0.8410
vn -0.8816 0.1857 -0.4339
vn -0.8821 0.1851 -0.4331
vn 0.4033 0.3594 -0.8415
vn 0.4038 0.3599 -0.8411
vn 0.4032 0.3596 -0.8415
vn 0.0001 0.3935 -0.9193
vn -0.0001 0.3935 -0.9193
vn 0.0005 0.3933 -0.9194
vn 0.4989 0.3422 0.7962
vn 0.4988 0.3425 0.7961
vn 0.4994 0.3423 0.7959
vn -0.1633 0.1694 0.9719
vn -0.1623 0.1693 0.9721
vn -0.1623 0.1691 0.9721
vn -0.7010 0.6552 0.2818
vn -0.7006 0.6564 0.2799
vn -0.7008 0.6552 0.2821
vn -0.1620 0.8196 -0.5495
vn -0.1636 0.8192 -0.5497
vn -0.1618 0.8197 -0.5494
vn 0.4986 0.8124 -0.3024
vn 0.4996 0.8119 -0.3019
vn 0.4996 0.8118 -0.3022
vn 0.0998 0.5911 0.8004
vn 0.0995 0.5908 0.8007
vn 0.0996 0.5916 0.8000
vn 0.3516 0.8608 0.3679
vn 0.3517 0.8608 0.3679
vn -0.2752 0.7024 0.6564
vn -0.2743 0.7022 0.6570
vn -0.2749 0.7022 0.6568
vn -0.2745 0.9601 0.0537
vn -0.2749 0.9599 0.0548
vn -0.2747 0.9600 0.0535
vn 0.0996 0.9872 -0.1245
vn 0.0997 0.9869 -0.1265
vn 0.0999 0.9869 -0.1264
vn -0.3234 -0.9462 0.0135
vn -0.3235 -0.9461 0.0135
vn -0.3237 -0.9461 0.0134
vn 0.5371 -0.2500 -0.8056
vn -0.0994 -0.9870 0.1266
vn 0.2741 -0.9602 -0.0538
vn 0.7011 -0.6559 -0.2798
vn 0.2741 -0.7018 -0.6575
vn -0.3510 -0.8610 -0.3680
vn -0.4991 -0.8125 0.3013
vn -0.0998 -0.5919 -0.7998
vn -0.4987 -0.3426 -0.7962
vn 0.8818 -0.1858 0.4335
vn 0.8813 0.1856 -0.4347
vn 0.0004 -0.3938 0.9192
vn -0.8814 -0.1852 0.4345
vn -0.4036 -0.3599 0.8412
vn -0.8821 0.1852 -0.4330
vn 0.4043 0.3596 -0.8410
vn -0.0003 0.3937 -0.9192
vn 0.4985 0.3425 0.7963
vn -0.1636 0.1694 0.9719
vn -0.7007 0.6563 0.2796
vn -0.1639 0.8192 -0.5497
vn 0.4984 0.8126 -0.3021
vn 0.0997 0.5899 0.8013
vn -0.2746 0.7021 0.6570
vn -0.2746 0.9600 0.0551
vn 0.0994 0.9872 -0.1245
s 1
f 1//1 2//1 3//1
f 4//2 5//3 6//4
f 7//5 8//6 9//7
f 10//8 11//9 12//8
f 13//10 14//11 15//12
f 16//13 17//13 18//13
f 19//14 20//14 21//14
f 22//15 23//15 24//15
f 25//16 26//16 27//16
f 28//17 29//18 30//17
f 31//19 32//20 33//21
f 34//22 35//23 36//24
f 37//25 38//25 39//25
f 40//26 41//27 42//27
f 43//28 44//29 45//30
f 46//31 47//32 48//33
f 49//34 50//35 51//34
f 52//36 53//37 54//36
f 55//38 56//38 57//38
f 10//39 2//39 7//39
f 19//40 16//40 14//40
f 13//41 22//41 32//41
f 31//42 25//42 35//42
f 34//43 28//43 38//43
f 3//44 12//44 37//44
f 43//45 23//45 18//45
f 24//46 46//46 50//46
f 49//47 29//47 27//47
f 30//48 52//48 56//48
f 55//49 17//49 42//49
f 45//50 57//50 54//50
f 58//51 9//52 59//53
f 2//54 8//55 7//56
f 13//57 8//58 14//57
f 19//59 3//60 20//61
f 12//62 2//63 10//64
f 5//65 58//66 60//66
f 31//67 59//68 32//69
f 11//70 4//71 6//72
f 35//73 6//74 5//75
f 37//76 11//77 38//78
f 17//79 19//80 21//80
f 42//81 20//82 40//83
f 23//84 13//85 15//86
f 16//87 15//88 14//89
f 26//90 31//91 33//92
f 24//93 32//94 22//95
f 29//96 34//97 36//98
f 27//99 35//100 25//99
f 40//101 39//102 41//103
f 30//104 38//105 28//106
f 43//107 17//108 44//109
f 47//110 24//111 23//112
f 49//113 26//114 50//115
f 52//116 29//117 53//118
f 56//119 42//120 41//121
f 47//122 45//123 48//124
f 55//125 45//126 44//126
f 51//127 46//128 48//129
f 53//130 51//131 54//132
f 57//133 52//134 54//135
f 58//136 59//137 60//138
f 7//39 58//39 4//39
f 4//39 10//39 7//39
f 8//40 1//40 14//40
f 1//40 19//40 14//40
f 32//41 59//41 9//41
f 9//41 13//41 32//41
f 35//42 5//42 60//42
f 60//42 31//42 35//42
f 38//43 11//43 6//43
f 6//43 34//43 38//43
f 40//139 20//44 37//44
f 20//44 3//44 37//44
f 47//45 23//45 43//45
f 23//45 15//45 18//45
f 50//46 26//46 33//46
f 33//46 24//46 50//46
f 53//47 29//47 49//47
f 29//47 36//47 27//47
f 56//48 41//48 30//48
f 41//48 39//48 30//48
f 44//49 17//49 55//49
f 17//49 21//49 42//49
f 51//50 48//50 54//50
f 48//50 45//50 54//50
f 58//51 7//140 9//52
f 2//54 1//141 8//55
f 13//57 9//58 8//58
f 19//59 1//142 3//60
f 12//62 3//143 2//63
f 5//65 4//144 58//66
f 31//67 60//145 59//68
f 11//70 10//146 4//71
f 35//73 34//147 6//74
f 37//76 12//77 11//77
f 17//79 16//148 19//80
f 42//81 21//149 20//82
f 23//84 22//150 13//85
f 16//87 18//87 15//88
f 26//90 25//151 31//91
f 24//93 33//152 32//94
f 29//96 28//96 34//97
f 27//99 36//153 35//100
f 40//101 37//154 39//102
f 30//104 39//155 38//105
f 43//107 18//156 17//108
f 47//110 46//157 24//111
f 49//113 27//158 26//114
f 52//116 30//159 29//117
f 56//119 55//160 42//120
f 47//122 43//161 45//123
f 55//125 57//125 45//126
f 51//127 50//162 46//128
f 53//130 49//163 51//131
f 57//133 56//164 52//134
