# Blender v3.3.1 OBJ File: 'project 2.blend'
# www.blender.org
o Solid
v -0.190014 0.820958 -5.274485
v -0.654579 1.468228 -5.592103
v -0.078169 1.306059 -5.846843
v 0.520954 1.414487 -5.564984
v -0.065928 1.491009 -5.264682
v 0.246269 3.870804 -6.804575
v 0.067280 2.727741 -6.233784
v 0.040040 2.363516 -5.847601
v 0.373559 2.194950 -5.961334
v -0.325837 2.306637 -6.012742
v 0.043085 2.273136 -6.201715
v -0.127481 0.969903 -5.341399
vn -0.4548 -0.6336 -0.6259
vn 0.3919 -0.7382 -0.5491
vn 0.4436 -0.0952 0.8912
vn -0.4869 0.0774 0.8700
vn -0.4508 -0.2617 -0.8534
vn 0.4497 -0.3618 -0.8166
vn 0.4537 0.4414 0.7742
vn -0.4278 0.5299 0.7322
vn 0.5135 0.6059 0.6077
vn -0.3856 0.6846 0.6185
vn -0.4583 -0.0382 -0.8880
vn 0.5723 -0.0880 -0.8153
vn 0.4277 0.2627 0.8649
vn -0.4299 0.3535 0.8308
vn -0.4384 -0.4545 -0.7754
vn 0.4080 -0.5396 -0.7365
s 1
f 1//1 2//1 3//1
f 1//2 3//2 4//2
f 1//3 4//3 5//3
f 1//4 5//4 2//4
f 6//5 3//5 2//5
f 6//6 4//6 3//6
f 6//7 5//7 4//7
f 6//8 2//8 5//8
f 7//9 8//9 9//9
f 7//10 10//10 8//10
f 7//11 11//11 10//11
f 7//12 9//12 11//12
f 12//13 9//13 8//13
f 12//14 8//14 10//14
f 12//15 10//15 11//15
f 12//16 11//16 9//16
